<?xml version="1.0" standalone="no"?>
<!DOCTYPE svg PUBLIC "-//W3C//DTD SVG 20010904//EN"
 "http://www.w3.org/TR/2001/REC-SVG-20010904/DTD/svg10.dtd">
<svg version="1.0" xmlns="http://www.w3.org/2000/svg"
 width="1528.000000pt" height="1436.000000pt" viewBox="0 0 1528.000000 1436.000000"
 preserveAspectRatio="xMidYMid meet">
<metadata>
Created by potrace 1.15, written by Peter Selinger 2001-2017
</metadata>
<g transform="translate(0.000000,1436.000000) scale(0.100000,-0.100000)"
fill="#000000" stroke="none">
<path d="M7230 14079 c-351 -19 -763 -68 -972 -115 -752 -169 -1399 -415
-2008 -764 -707 -405 -1304 -898 -1822 -1500 -550 -641 -989 -1412 -1264
-2224 -512 -1505 -509 -3121 6 -4581 357 -1012 881 -1861 1605 -2604 651 -667
1457 -1206 2335 -1561 210 -85 621 -220 832 -274 572 -147 877 -179 1663 -179
825 1 1294 39 1696 138 1515 374 2805 1164 3757 2300 750 894 1252 1973 1477
3175 86 461 112 1102 74 1855 -28 569 -77 874 -214 1350 -166 574 -372 1064
-655 1560 -595 1038 -1492 1933 -2542 2536 -677 388 -1411 661 -2187 813 -188
37 -385 60 -651 76 -194 12 -907 11 -1130 -1z m1245 -998 c214 -23 297 -37
502 -86 620 -148 1220 -392 1763 -717 1541 -923 2583 -2477 2870 -4278 98
-621 71 -1359 -76 -2039 -233 -1080 -656 -1886 -1450 -2761 -136 -150 -440
-452 -580 -577 -814 -722 -1983 -1223 -3179 -1363 -1074 -125 -2105 64 -3160
579 -506 247 -903 503 -1305 841 -171 144 -554 527 -690 690 -497 597 -847
1231 -1101 1991 -207 620 -280 1107 -280 1863 0 345 11 552 41 793 87 678 360
1456 741 2108 877 1500 2370 2565 4074 2904 312 62 592 80 1180 76 381 -3 493
-7 650 -24z"/>
<path d="M4419 11180 c-144 -10 -236 -28 -265 -54 -35 -29 -41 -89 -54 -481
-13 -399 -15 -2715 -5 -4732 l8 -1473 504 0 c394 0 504 3 507 12 3 7 14 954
26 2103 12 1150 25 2212 28 2362 l7 272 940 -1676 c517 -922 948 -1690 957
-1707 l16 -32 -125 -190 c-182 -275 -289 -459 -421 -724 -216 -431 -332 -775
-378 -1120 -16 -125 -18 -412 -3 -513 92 -616 519 -1078 1119 -1211 173 -38
317 -50 534 -43 357 11 576 80 831 262 320 229 515 480 584 753 47 186 55 257
56 517 0 347 -24 466 -167 823 -189 473 -401 882 -664 1285 -57 87 -104 160
-104 162 0 19 469 849 658 1165 58 96 151 263 207 370 56 107 180 335 275 505
261 470 812 1449 821 1459 5 5 5 -1080 2 -2412 l-6 -2422 49 0 c27 0 247 -7
489 -15 242 -8 451 -15 463 -15 l24 0 -5 3053 c-3 1942 -9 3127 -16 3259 -17
345 -33 429 -83 441 -93 23 -225 29 -503 24 -389 -8 -611 -37 -641 -84 -102
-161 -155 -249 -282 -468 -199 -345 -552 -969 -852 -1505 -657 -1177 -1214
-2130 -1245 -2130 -15 0 -616 1051 -1315 2300 -549 982 -904 1605 -985 1731
-74 115 -113 133 -317 149 -137 11 -507 11 -669 0z m3406 -6711 c150 -266 379
-793 405 -927 11 -62 -2 -132 -42 -210 -50 -100 -156 -176 -308 -224 -61 -18
-98 -23 -195 -23 -118 0 -121 1 -199 38 -153 73 -284 241 -294 376 -3 44 3 73
27 138 85 230 382 844 458 947 l36 50 27 -31 c15 -17 54 -77 85 -134z"/>
</g>
</svg>
