<?xml version="1.0" standalone="no"?>
<!DOCTYPE svg PUBLIC "-//W3C//DTD SVG 20010904//EN"
 "http://www.w3.org/TR/2001/REC-SVG-20010904/DTD/svg10.dtd">
<svg version="1.0" xmlns="http://www.w3.org/2000/svg"
 width="1081.000000pt" height="1081.000000pt" viewBox="0 0 1081.000000 1081.000000"
 preserveAspectRatio="xMidYMid meet">

<g transform="translate(0.000000,1081.000000) scale(0.100000,-0.100000)"
fill="#000000" stroke="none">
<path d="M5746 10233 c-2 -10 -21 -119 -41 -243 -19 -124 -37 -232 -39 -241
-3 -14 23 -21 158 -43 88 -14 180 -26 204 -26 121 0 191 95 143 194 -12 24
-28 47 -36 50 -21 8 -18 24 6 31 11 4 29 21 40 38 40 67 13 149 -61 187 -35
18 -295 70 -350 70 -10 0 -21 -8 -24 -17z m270 -135 c43 -20 42 -72 -2 -88
-13 -5 -49 -4 -88 2 l-66 11 6 36 c10 65 9 64 71 56 31 -4 67 -12 79 -17z
m-72 -193 c37 -8 75 -20 82 -26 22 -18 17 -57 -11 -75 -22 -15 -34 -15 -105
-4 -87 14 -85 12 -74 83 8 43 9 43 108 22z"/>
<path d="M4863 10226 c-50 -6 -95 -14 -99 -18 -3 -4 6 -122 21 -263 26 -233
30 -255 47 -255 11 0 81 7 156 16 152 17 216 39 270 93 55 56 67 87 67 181 0
75 -3 91 -28 132 -31 53 -79 94 -134 114 -45 16 -171 16 -300 0z m253 -125
c70 -42 85 -162 29 -221 -31 -33 -64 -45 -142 -54 l-52 -7 -5 33 c-3 18 -11
82 -17 142 -9 90 -9 110 2 117 27 17 152 10 185 -10z"/>
<path d="M4375 10113 c-99 -30 -182 -57 -184 -58 -4 -4 139 -478 149 -496 8
-12 3 -14 297 77 l112 34 -16 53 c-8 28 -16 53 -17 55 -2 2 -138 -38 -242 -72
-19 -6 -24 -1 -37 38 -9 25 -13 47 -9 50 6 3 122 38 203 62 15 4 15 9 2 57 -9
29 -16 53 -17 54 -1 1 -44 -11 -96 -27 -134 -42 -131 -42 -145 6 l-12 42 129
38 c86 25 127 41 124 50 -2 6 -10 30 -17 53 -8 27 -18 41 -28 40 -9 -1 -97
-26 -196 -56z"/>
<path d="M6379 10103 c-129 -339 -137 -395 -63 -482 51 -59 123 -93 210 -99
57 -4 78 -1 110 16 71 36 95 74 162 257 22 61 45 122 51 137 10 26 8 27 -57
52 -36 14 -69 23 -73 18 -3 -4 -28 -68 -55 -142 -73 -202 -104 -236 -184 -204
-76 31 -78 74 -11 258 28 74 51 142 53 151 2 12 -11 22 -47 36 -86 33 -84 33
-96 2z"/>
<path d="M3959 9956 l-67 -31 107 -237 c58 -131 111 -238 117 -238 18 0 124
51 124 59 0 7 -207 472 -213 476 -1 2 -32 -12 -68 -29z"/>
<path d="M3598 9760 l-178 -107 136 -223 c74 -124 136 -226 138 -228 4 -4 126
69 126 75 0 3 -20 39 -45 80 -26 42 -45 76 -43 78 2 1 47 28 101 60 l97 58
-22 36 c-38 65 -34 65 -141 1 l-97 -60 -26 41 c-14 22 -27 46 -29 52 -3 7 44
41 105 77 61 35 110 69 110 75 0 5 -12 28 -28 51 l-27 41 -177 -107z"/>
<path d="M6972 9800 c-62 -38 -91 -125 -61 -183 7 -12 45 -57 86 -99 56 -58
74 -83 71 -100 -8 -60 -126 -11 -190 78 -17 24 -33 44 -34 44 -8 0 -94 -65
-94 -70 0 -21 78 -104 131 -139 139 -93 275 -87 323 13 36 75 17 126 -86 233
-71 72 -80 95 -46 116 25 17 92 -19 143 -75 l44 -49 45 33 c25 18 45 37 46 41
0 4 -21 30 -46 57 -96 103 -250 150 -332 100z"/>
<path d="M7332 9379 c-84 -110 -155 -205 -158 -213 -6 -16 104 -103 115 -90
16 18 298 389 305 402 8 14 6 15 -69 71 l-41 29 -152 -199z"/>
<path d="M3232 9508 c-29 -23 -51 -47 -48 -53 7 -18 307 -399 317 -403 5 -2
33 16 63 39 l55 43 -27 36 c-88 116 -294 375 -300 377 -4 2 -31 -16 -60 -39z"/>
<path d="M2916 9236 l-170 -163 42 -44 41 -44 58 57 58 58 147 -147 148 -147
50 49 c28 27 49 53 48 57 -2 4 -65 72 -140 152 l-138 144 58 56 57 55 -40 40
c-21 23 -42 41 -45 41 -3 -1 -81 -74 -174 -164z"/>
<path d="M7553 9196 l-188 -185 52 -53 53 -53 100 100 c55 55 100 93 100 85 0
-8 -7 -91 -16 -183 l-17 -168 44 -45 43 -44 188 187 188 188 -52 52 -52 53
-98 -97 c-114 -113 -106 -123 -81 110 l16 158 -38 39 c-22 22 -43 40 -47 40
-4 0 -92 -83 -195 -184z"/>
<path d="M5300 8944 c-290 -24 -534 -91 -765 -210 -390 -201 -707 -541 -878
-944 -217 -511 -202 -1087 42 -1584 396 -807 1306 -1227 2176 -1005 141 36
227 68 380 144 370 184 660 471 845 838 271 538 276 1155 16 1692 -163 334
-429 621 -756 813 -191 113 -451 204 -673 236 -108 16 -312 26 -387 20z m490
-1884 l0 -1490 -370 0 -370 0 0 1145 0 1145 -94 0 c-51 0 -114 3 -140 6 l-46
7 1 116 c1 64 4 147 8 185 l6 69 170 153 170 153 333 0 332 1 0 -1490z m478
474 c214 -89 148 -404 -84 -404 -61 0 -134 40 -171 93 -25 35 -28 49 -28 116
0 67 3 81 29 118 53 79 167 114 254 77z m580 -17 c-13 -18 -160 -221 -327
-450 l-305 -417 -73 0 c-59 0 -72 3 -66 13 4 8 152 210 327 450 l319 437 74 0
74 0 -23 -33z m-12 -466 c85 -39 139 -149 115 -236 -16 -59 -45 -101 -92 -132
-95 -62 -232 -30 -293 70 -67 110 -17 257 104 306 40 16 122 12 166 -8z"/>
<path d="M6155 7431 c-96 -40 -70 -186 34 -186 45 0 69 17 88 63 19 46 -3 97
-51 117 -40 17 -43 17 -71 6z"/>
<path d="M6705 6946 c-56 -24 -71 -95 -30 -144 59 -70 165 -29 165 64 0 36
-16 61 -50 79 -35 18 -46 18 -85 1z"/>
<path d="M2645 8883 c-47 -25 -82 -61 -159 -168 -40 -55 -75 -105 -79 -112 -4
-7 69 -65 198 -157 112 -81 210 -149 218 -151 7 -3 29 18 54 53 l41 58 -54 39
c-30 21 -54 41 -54 43 0 3 9 19 20 37 l20 32 88 -4 87 -4 43 63 43 63 -97 5
-96 5 -4 49 c-7 95 -86 166 -184 166 -30 -1 -68 -8 -85 -17z m109 -144 c44
-34 30 -96 -40 -178 -5 -5 -112 68 -120 81 -8 12 32 73 63 98 33 26 63 25 97
-1z"/>
<path d="M7989 8724 c-118 -80 -213 -148 -212 -153 1 -6 219 -329 229 -340 5
-5 41 13 74 39 l24 18 -77 116 -77 116 40 26 c22 15 42 25 44 23 2 -2 31 -46
65 -97 60 -90 63 -93 84 -79 12 8 32 20 45 28 12 8 22 17 22 22 0 4 -28 49
-62 98 l-63 91 28 24 c15 13 33 24 40 24 7 0 38 -40 70 -88 31 -48 64 -95 72
-106 15 -20 13 -21 95 33 12 8 -6 41 -100 180 -63 94 -118 170 -121 171 -3 0
-102 -65 -220 -146z"/>
<path d="M2255 8323 c-80 -167 -119 -253 -114 -257 7 -8 471 -227 474 -224 8
12 175 370 175 376 0 7 -83 52 -95 52 -2 0 -30 -54 -61 -120 -31 -66 -61 -120
-66 -120 -19 0 -78 30 -78 40 0 6 20 51 45 100 25 49 45 94 45 100 0 9 -71 50
-88 50 -4 0 -30 -45 -57 -100 -27 -55 -52 -100 -56 -100 -4 0 -23 7 -42 15
l-36 15 55 115 c30 63 54 119 54 123 0 7 -82 52 -94 52 -2 0 -30 -53 -61 -117z"/>
<path d="M8385 8345 c-88 -31 -106 -88 -80 -241 14 -84 15 -107 5 -119 -41
-49 -105 45 -117 172 l-6 65 -45 -6 c-25 -3 -51 -6 -58 -6 -31 0 -2 -159 43
-243 34 -62 105 -125 150 -133 47 -9 103 9 137 45 37 39 44 100 21 209 -19 93
-14 122 19 122 42 0 79 -64 92 -160 l7 -52 55 6 c31 4 58 9 60 11 11 10 -22
144 -47 194 -62 122 -143 169 -236 136z"/>
<path d="M2084 7857 c-151 -157 -105 -412 89 -484 18 -6 61 -12 97 -12 155 -2
265 111 277 284 4 58 1 80 -17 123 -12 29 -24 52 -27 52 -3 0 -36 -21 -100
-65 -2 -1 4 -23 13 -49 42 -122 -61 -227 -186 -190 -119 35 -147 175 -51 256
l39 32 -26 53 c-14 29 -33 53 -41 53 -8 0 -38 -24 -67 -53z"/>
<path d="M8570 7832 c-19 -9 -45 -32 -57 -51 -21 -30 -23 -46 -23 -147 0 -90
-3 -116 -16 -129 -20 -20 -32 -16 -56 16 -24 32 -37 116 -28 176 5 26 7 49 6
50 -1 1 -28 6 -59 11 -56 9 -58 8 -64 -15 -3 -14 -3 -65 -1 -114 9 -159 83
-267 186 -276 59 -5 109 19 137 67 17 29 20 53 20 145 0 61 4 116 8 123 5 6
19 12 32 12 39 0 60 -50 60 -142 l0 -77 53 -7 c29 -3 56 -3 60 1 4 4 7 39 7
78 -1 207 -133 346 -265 279z"/>
<path d="M4015 4783 c-58 -7 -155 -47 -202 -82 -139 -106 -197 -290 -142 -453
62 -185 225 -288 436 -276 195 11 352 154 385 350 9 54 8 79 -6 141 -37 165
-152 276 -325 313 -65 14 -88 15 -146 7z m145 -218 c93 -48 137 -180 91 -280
-64 -142 -254 -156 -341 -26 -35 52 -40 161 -11 219 48 95 167 134 261 87z"/>
<path d="M2942 4378 l3 -393 110 0 110 0 3 137 3 138 182 2 182 3 0 90 0 90
-182 3 -183 2 0 65 0 65 205 0 205 0 0 95 0 95 -320 0 -320 0 2 -392z"/>
<path d="M4610 4376 l0 -396 110 0 110 0 0 120 0 120 48 0 47 0 79 -120 79
-120 123 0 c68 0 124 3 124 8 0 4 -40 65 -89 136 l-89 130 44 29 c51 34 79 69
99 128 34 96 5 222 -67 283 -73 63 -105 69 -375 74 l-243 4 0 -396z m424 190
c40 -17 64 -65 50 -103 -18 -50 -55 -67 -159 -71 l-95 -4 0 96 0 96 85 0 c50
0 99 -6 119 -14z"/>
<path d="M5590 4675 l0 -95 115 0 115 0 0 -300 0 -300 110 0 110 0 0 300 0
300 120 0 120 0 0 95 0 95 -345 0 -345 0 0 -95z"/>
<path d="M6372 4378 l3 -393 110 0 110 0 3 148 3 147 134 0 135 0 0 -150 0
-150 110 0 110 0 0 395 0 395 -110 0 -110 0 0 -145 0 -145 -135 0 -135 0 0
145 0 145 -115 0 -115 0 2 -392z"/>
<path d="M7230 4375 l0 -395 320 0 320 0 0 95 0 95 -210 0 -210 0 0 60 0 60
188 2 187 3 0 85 0 85 -187 3 -188 2 0 55 0 55 205 0 205 0 0 95 0 95 -315 0
-315 0 0 -395z"/>
<path d="M4771 3822 c-12 -22 -351 -823 -351 -828 0 -2 55 -4 123 -4 l123 0
30 73 29 72 161 3 161 2 29 -75 29 -75 127 0 c98 0 126 3 123 13 -3 6 -83 197
-179 422 l-174 410 -110 3 c-101 2 -112 1 -121 -16z m158 -376 c23 -58 41
-109 41 -115 0 -7 -31 -11 -85 -11 -47 0 -85 3 -85 7 0 8 84 223 87 223 1 0
20 -47 42 -104z"/>
<path d="M2940 3411 l0 -421 120 0 120 0 0 119 0 119 118 4 c102 4 125 8 180
33 120 54 179 154 170 289 -8 124 -65 203 -182 250 -46 18 -76 21 -288 24
l-238 4 0 -421z m427 199 c20 -12 35 -31 41 -53 26 -95 -35 -146 -175 -147
l-53 0 0 110 0 110 78 0 c59 0 85 -5 109 -20z"/>
<path d="M3750 3410 l0 -420 320 0 321 0 -3 103 -3 102 -202 3 -203 2 0 315 0
315 -115 0 -115 0 0 -420z"/>
<path d="M5440 3410 l0 -420 115 0 115 0 2 225 3 225 175 -225 175 -225 102 0
103 0 0 420 0 420 -115 0 -115 0 -2 -216 -3 -217 -169 217 -168 216 -109 0
-109 0 0 -420z"/>
<path d="M6380 3410 l0 -420 340 0 340 0 0 100 0 100 -225 0 -225 0 0 65 0 65
200 0 200 0 0 95 0 95 -200 0 -200 0 0 60 0 60 225 0 225 0 0 100 0 100 -340
0 -340 0 0 -420z"/>
<path d="M7130 3725 l0 -105 125 0 125 0 0 -315 0 -315 120 0 120 0 0 315 0
315 125 0 125 0 0 105 0 105 -370 0 -370 0 0 -105z"/>
<path d="M7696 3119 c-52 -41 -22 -129 45 -129 43 0 73 31 73 75 0 67 -64 96
-118 54z m88 -15 c35 -34 10 -96 -39 -96 -28 0 -65 31 -65 56 0 46 71 74 104
40z"/>
<path d="M7710 3067 c0 -33 2 -35 33 -35 30 0 33 2 32 32 0 28 -3 31 -32 34
-32 3 -33 2 -33 -31z"/>
<path d="M2940 2480 l0 -50 2465 0 2465 0 0 50 0 50 -2465 0 -2465 0 0 -50z"/>
<path d="M6211 1990 c-107 -23 -187 -83 -233 -178 -29 -59 -33 -76 -33 -148 0
-73 4 -88 35 -150 40 -78 103 -133 185 -161 73 -26 213 -23 286 6 51 20 141
84 129 93 -3 2 -29 25 -58 51 l-52 48 -45 -32 c-94 -68 -222 -44 -272 51 -49
93 -18 212 67 257 74 39 155 27 220 -32 l25 -23 60 55 59 56 -39 33 c-76 64
-224 97 -334 74z"/>
<path d="M6894 1990 c-104 -21 -198 -94 -243 -190 -36 -78 -36 -191 0 -271 34
-72 87 -124 162 -159 150 -72 340 -40 446 75 63 68 84 123 84 220 0 97 -21
152 -84 220 -86 93 -224 133 -365 105z m159 -154 c107 -44 142 -204 64 -293
-112 -127 -307 -50 -307 122 0 133 124 221 243 171z"/>
<path d="M3440 1920 l0 -70 60 0 60 0 0 -255 0 -255 90 0 90 0 0 325 0 325
-150 0 -150 0 0 -70z"/>
<path d="M3880 1665 l0 -325 90 0 90 0 0 110 0 110 145 0 145 0 0 70 0 70
-145 0 -145 0 0 75 0 75 165 0 165 0 0 70 0 70 -255 0 -255 0 0 -325z"/>
<path d="M4410 1920 l0 -70 100 0 100 0 0 -255 0 -255 95 0 95 0 0 255 0 255
100 0 100 0 0 70 0 70 -295 0 -295 0 0 -70z"/>
<path d="M5080 1665 l0 -325 90 0 90 0 0 85 0 85 78 0 c88 0 179 21 229 51 19
12 47 44 63 73 61 106 27 252 -72 310 -64 36 -131 46 -313 46 l-165 0 0 -325z
m350 170 c38 -20 56 -72 40 -120 -16 -48 -52 -65 -140 -65 l-70 0 0 100 0 100
70 0 c43 0 82 -6 100 -15z"/>
<path d="M5754 1531 c-50 -22 -72 -111 -39 -157 35 -51 122 -55 166 -8 35 37
34 104 -2 140 -28 28 -89 40 -125 25z"/>
</g>
</svg>
