<?xml version="1.0" standalone="no"?>
<!DOCTYPE svg PUBLIC "-//W3C//DTD SVG 20010904//EN"
 "http://www.w3.org/TR/2001/REC-SVG-20010904/DTD/svg10.dtd">
<svg version="1.0" xmlns="http://www.w3.org/2000/svg"
 width="311.000000pt" height="310.000000pt" viewBox="0 0 311.000000 310.000000"
 preserveAspectRatio="xMidYMid meet">

<g transform="translate(0.000000,310.000000) scale(0.100000,-0.100000)"
fill="#000000" stroke="none">
<path d="M1325 3074 c-429 -66 -814 -311 -1052 -669 -308 -465 -344 -1053 -94
-1547 79 -156 165 -274 295 -403 213 -212 473 -353 764 -416 153 -32 412 -37
570 -10 226 38 453 131 636 258 113 79 309 278 383 388 193 289 284 601 270
930 -7 165 -28 280 -77 426 -80 241 -193 423 -375 604 -165 165 -331 274 -545
358 -218 86 -533 119 -775 81z m463 -510 c320 -80 563 -320 664 -654 26 -85
35 -300 18 -408 -31 -198 -216 -552 -462 -884 -82 -110 -98 -124 -126 -109 -9
5 -84 88 -167 185 -82 97 -153 176 -157 176 -3 0 -75 -80 -158 -177 -84 -98
-159 -182 -166 -186 -24 -14 -53 12 -130 114 -250 337 -433 694 -464 906 -67
461 205 891 650 1027 165 51 325 54 498 10z"/>
<path d="M1400 2496 c-407 -87 -683 -421 -682 -827 0 -59 3 -121 7 -138 l7
-31 117 0 116 0 45 62 c177 243 545 478 748 478 134 0 256 -115 277 -258 9
-63 1 -67 -137 -67 -101 0 -130 -3 -162 -19 -46 -23 -96 -96 -96 -142 l0 -31
293 -5 c162 -3 330 -3 375 0 l81 4 7 65 c36 344 -175 709 -492 849 -146 65
-361 90 -504 60z"/>
<path d="M1710 1929 c-93 -14 -251 -95 -385 -197 -75 -58 -198 -183 -250 -255
-22 -31 -50 -61 -63 -66 -13 -6 -74 -11 -137 -11 l-115 0 21 -52 c33 -88 124
-267 194 -383 72 -122 224 -337 241 -342 5 -2 79 78 164 177 134 157 158 181
180 178 20 -2 64 -47 182 -185 l156 -183 68 92 c145 197 315 497 378 666 l16
42 -358 0 c-196 0 -374 3 -395 7 -54 8 -72 40 -72 123 1 158 117 269 300 287
l80 8 -40 42 c-45 48 -93 63 -165 52z"/>
</g>
</svg>
