<?xml version="1.0" standalone="no"?>
<!DOCTYPE svg PUBLIC "-//W3C//DTD SVG 20010904//EN"
 "http://www.w3.org/TR/2001/REC-SVG-20010904/DTD/svg10.dtd">
<svg version="1.0" xmlns="http://www.w3.org/2000/svg"
 width="384.000000pt" height="386.000000pt" viewBox="0 0 384.000000 386.000000"
 preserveAspectRatio="xMidYMid meet">

<g transform="translate(0.000000,386.000000) scale(0.100000,-0.100000)"
fill="#000000" stroke="none">
<path d="M1855 3834 c-16 -2 -70 -9 -118 -15 -252 -31 -527 -142 -752 -301
-116 -82 -292 -259 -377 -378 -128 -179 -237 -427 -282 -640 -9 -41 -21 -135
-28 -208 -18 -203 8 -446 66 -612 153 -435 493 -1041 838 -1489 113 -147 129
-162 155 -145 16 9 290 326 530 611 43 51 80 93 83 93 3 0 44 -46 90 -101 191
-228 497 -585 513 -598 31 -25 61 2 188 171 321 427 607 924 775 1348 84 214
111 387 101 658 -15 431 -176 801 -482 1107 -269 269 -550 416 -917 479 -88
16 -327 28 -383 20z m250 -95 c696 -61 1267 -568 1416 -1258 27 -125 37 -439
17 -551 l-13 -75 -150 -5 c-217 -8 -1272 3 -1282 13 -4 5 -8 39 -7 75 1 174
133 308 343 349 85 17 106 16 322 -14 71 -10 88 51 48 170 -53 157 -143 270
-264 327 -60 29 -83 34 -166 38 -117 6 -210 -13 -354 -70 -391 -154 -780 -457
-1046 -814 -38 -50 -75 -94 -84 -98 -27 -10 -463 -7 -470 3 -3 6 -13 77 -22
158 -35 310 21 616 163 894 245 480 726 808 1259 858 129 12 156 12 290 0z
m382 -1090 c71 -34 119 -85 157 -165 14 -30 26 -57 26 -59 0 -3 -55 -5 -122
-5 -73 0 -149 -6 -185 -15 -162 -38 -293 -141 -360 -281 -37 -77 -38 -82 -38
-194 0 -124 13 -167 58 -192 17 -9 191 -13 745 -16 447 -3 722 -8 722 -14 0
-18 -103 -263 -165 -395 -113 -237 -266 -500 -456 -786 -81 -121 -251 -351
-268 -361 -5 -3 -89 89 -188 205 -368 437 -419 494 -440 497 -16 2 -48 -28
-140 -135 -65 -76 -139 -163 -164 -194 -25 -31 -108 -130 -185 -219 l-139
-162 -30 35 c-59 69 -233 315 -337 477 -201 315 -355 604 -467 879 -28 68 -51
127 -51 132 0 4 102 9 227 11 264 3 268 5 336 94 174 231 330 392 508 526 143
108 243 170 395 245 274 137 421 161 561 92z"/>
</g>
</svg>
